<svg width="117" height="131" viewBox="0 0 117 131" fill="none" xmlns="http://www.w3.org/2000/svg">
<circle cx="71" cy="85" r="38.5" fill="white" stroke="#FF9100" stroke-width="15"/>
<circle cx="49.5" cy="78.5" r="2.5" fill="#FF9100"/>
<circle cx="49.5" cy="94.5" r="2.5" fill="#FF9100"/>
<circle cx="49.5" cy="86.5" r="2.5" fill="#FF9100"/>
<rect x="54" y="81" width="5" height="11" rx="1" transform="rotate(-90 54 81)" fill="#FF9100"/>
<rect x="54" y="89" width="5" height="11" rx="1" transform="rotate(-90 54 89)" fill="#FF9100"/>
<rect x="54" y="97" width="5" height="11" rx="1" transform="rotate(-90 54 97)" fill="#FF9100"/>
<path d="M81.6353 101.73L75.8923 97.3951L89.2069 79.7556C90.404 78.1697 92.66 77.8545 94.2458 79.0515C95.8317 80.2486 96.1469 82.5046 94.9499 84.0904L81.6353 101.73Z" fill="#FF9100"/>
<path d="M71.6051 94.1835C70.1682 93.1014 69.8807 91.0593 70.9628 89.6225C72.045 88.1856 74.087 87.8981 75.5238 88.9802L85.0156 96.1288L81.0968 101.332L71.6051 94.1835Z" fill="#FF9100"/>
<path d="M54.1787 45.3261L72.821 5.1638L74.4846 46.8251L92.8639 32.4211L63.3118 65.7044L2.524 76.6139L34.0123 63.2074L2.96032 51.5098L40.1696 48.4881L32.7732 13.1792L54.1787 45.3261Z" fill="#FF9100"/>
</svg>
