<svg width="92" height="92" viewBox="0 0 92 92" fill="none" xmlns="http://www.w3.org/2000/svg">
<circle cx="46" cy="46" r="38.5" fill="white" stroke="#FF9100" stroke-width="15"/>
<path d="M62.5 45.5C62.5 52.6322 56.5042 58.5 49 58.5C41.4958 58.5 35.5 52.6322 35.5 45.5C35.5 38.3678 41.4958 32.5 49 32.5C56.5042 32.5 62.5 38.3678 62.5 45.5Z" stroke="#FF9100" stroke-width="3"/>
<path d="M56.5 45.5C56.5 49.8467 52.7678 53.5 48 53.5C43.2322 53.5 39.5 49.8467 39.5 45.5C39.5 41.1533 43.2322 37.5 48 37.5C52.7678 37.5 56.5 41.1533 56.5 45.5Z" stroke="#FF9100" stroke-width="3"/>
<rect x="34" y="31" width="17" height="29" fill="white"/>
<rect x="28" y="39" width="12" height="14" rx="1" fill="#FF9100"/>
<path d="M29.1579 46.3171C28.5933 45.9187 28.5933 45.0813 29.1579 44.6829L46.6734 32.3231C47.3359 31.8556 48.25 32.3294 48.25 33.1401V57.8599C48.25 58.6706 47.3359 59.1444 46.6734 58.6769L29.1579 46.3171Z" fill="#FF9100"/>
<rect x="28.7043" y="28.9082" width="5" height="47.8965" rx="2.5" transform="rotate(-39.85 28.7043 28.9082)" fill="#FF9100" stroke="white"/>
</svg>
