<svg width="246" height="271" viewBox="0 0 246 271" fill="none" xmlns="http://www.w3.org/2000/svg">
<circle cx="148.711" cy="170.98" r="78.4139" transform="rotate(-3.97908 148.711 170.98)" fill="white" stroke="#88D94E" stroke-width="24"/>
<path d="M110.568 97.5917L141.781 16.3523L150.587 97.8292L184.712 67.137L131.19 136.338L13.4359 165.821L73.4008 135.341L10.9508 116.534L83.5165 105.657L64.3133 37.3998L110.568 97.5917Z" fill="#88D94E"/>
<path d="M142.766 206.186L125.984 193.519L168.212 137.573C169.876 135.369 173.011 134.931 175.215 136.595L184.016 143.237C186.22 144.901 186.658 148.036 184.994 150.24L142.766 206.186Z" fill="#88D94E"/>
<path d="M109.848 181.415C107.642 179.754 107.201 176.619 108.862 174.413L114.297 167.196C115.959 164.991 119.093 164.549 121.299 166.21L152.644 189.817L141.193 205.022L109.848 181.415Z" fill="#88D94E"/>
</svg>
