<svg width="20" height="20" viewBox="0 0 20 20" fill="none" xmlns="http://www.w3.org/2000/svg">
<circle cx="10" cy="10" r="8.5" fill="white" stroke="#B1E1FF" stroke-width="3"/>
<path d="M13.3357 12.0351C13.7581 12.4965 13.7265 13.213 13.2651 13.6355C12.8037 14.0579 12.0872 14.0263 11.6648 13.5649L6.17165 7.56523C5.7492 7.10383 5.78078 6.38732 6.24219 5.96488C6.70359 5.54243 7.4201 5.57401 7.84254 6.03542L13.3357 12.0351Z" fill="#B1E1FF"/>
<path d="M12.0347 6.36478C12.4961 5.94233 13.2126 5.97391 13.635 6.43532C14.0575 6.89672 14.0259 7.61322 13.5645 8.03567L7.56477 13.5288C7.10337 13.9513 6.38687 13.9197 5.96442 13.4583C5.54197 12.9969 5.57356 12.2804 6.03496 11.8579L12.0347 6.36478Z" fill="#B1E1FF"/>
</svg>
