<svg width="25" height="25" viewBox="0 0 25 25" fill="none" xmlns="http://www.w3.org/2000/svg">
<circle cx="12.5" cy="12.5" r="11" fill="white" stroke="#FFC880" stroke-width="3"/>
<path d="M16.6698 15.0439C17.1979 15.6207 17.1584 16.5163 16.5817 17.0444V17.0444C16.0049 17.5724 15.1093 17.5329 14.5812 16.9562L7.71481 9.45655C7.18675 8.87979 7.22622 7.98416 7.80298 7.45611V7.45611C8.37974 6.92805 9.27536 6.96752 9.80342 7.54428L16.6698 15.0439Z" fill="#FF9100"/>
<path d="M15.0436 7.95598C15.6203 7.42792 16.516 7.4674 17.044 8.04416V8.04416C17.5721 8.62091 17.5326 9.51654 16.9558 10.0446L9.45621 16.911C8.87946 17.4391 7.98383 17.3996 7.45577 16.8228V16.8228C6.92771 16.2461 6.96719 15.3505 7.54394 14.8224L15.0436 7.95598Z" fill="#FF9100"/>
</svg>
